<svg xmlns="http://www.w3.org/2000/svg" viewBox="0 0 750 480">
  <defs>
    <marker id="arrow" viewBox="0 0 10 10" refX="9" refY="5" markerWidth="6" markerHeight="6" orient="auto-start-reverse">
      <path d="M 0 0 L 10 5 L 0 10 z" fill="#6B7280"/>
    </marker>
    <marker id="arrow-blue" viewBox="0 0 10 10" refX="9" refY="5" markerWidth="6" markerHeight="6" orient="auto-start-reverse">
      <path d="M 0 0 L 10 5 L 0 10 z" fill="#2563EB"/>
    </marker>
    <style>
      text { font-family: Arial, sans-serif; font-size: 13px; fill: #1F2937; }
      .small { font-size: 11px; fill: #6B7280; }
      .label { font-size: 12px; fill: #6B7280; font-style: italic; }
      .title { font-size: 14px; font-weight: bold; }
    </style>
  </defs>

  <rect x="20" y="55" width="710" height="415" rx="12" fill="#F0F9FF" stroke="#2563EB" stroke-width="1.5"/>
  <text x="40" y="78" class="title" fill="#2563EB">AWS</text>

  <rect x="40" y="90" width="670" height="265" rx="10" fill="#F0FDF4" stroke="#059669" stroke-width="1.2" stroke-dasharray="6,3"/>
  <text x="60" y="113" class="title" fill="#059669">VPC 10.0.0.0/16</text>

  <rect x="60" y="125" width="200" height="215" rx="8" fill="#FFFFFF" stroke="#D1D5DB" stroke-width="1"/>
  <text x="160" y="148" text-anchor="middle" class="small">Public Subnet</text>

  <rect x="80" y="160" width="160" height="80" rx="6" fill="#FEF3C7" stroke="#D97706" stroke-width="1.5"/>
  <text x="160" y="185" text-anchor="middle" font-weight="bold">EC2 Agent</text>
  <text x="160" y="202" text-anchor="middle" class="small">Docker, kubectl</text>
  <text x="160" y="216" text-anchor="middle" class="small">Helm, Trivy</text>

  <rect x="80" y="255" width="160" height="40" rx="6" fill="#FEF3C7" stroke="#D97706" stroke-width="1.2"/>
  <text x="160" y="280" text-anchor="middle" class="small">Azure DevOps Agent</text>

  <rect x="290" y="125" width="400" height="215" rx="8" fill="#FFFFFF" stroke="#D1D5DB" stroke-width="1"/>
  <text x="490" y="148" text-anchor="middle" class="small">Private Subnets</text>

  <rect x="310" y="160" width="360" height="110" rx="6" fill="#EDE9FE" stroke="#7C3AED" stroke-width="1.5"/>
  <text x="490" y="183" text-anchor="middle" font-weight="bold">EKS Cluster</text>

  <rect x="340" y="195" width="80" height="35" rx="4" fill="#FFFFFF" stroke="#7C3AED" stroke-width="1"/>
  <text x="380" y="217" text-anchor="middle" class="small">Pod</text>

  <rect x="440" y="195" width="80" height="35" rx="4" fill="#FFFFFF" stroke="#7C3AED" stroke-width="1"/>
  <text x="480" y="217" text-anchor="middle" class="small">Pod</text>

  <rect x="540" y="195" width="80" height="35" rx="4" fill="#FFFFFF" stroke="#7C3AED" stroke-width="1"/>
  <text x="580" y="217" text-anchor="middle" class="small">HPA</text>

  <rect x="240" y="245" x2="460" y2="280" width="160" height="35" rx="4" fill="#FFFFFF" stroke="#7C3AED" stroke-width="1"/>
  <text x="320" y="267" text-anchor="middle" class="small">Metrics Server</text>

  <rect x="370" y="290" width="180" height="40" rx="6" fill="#DBEAFE" stroke="#2563EB" stroke-width="1.5"/>
  <text x="460" y="315" text-anchor="middle" font-weight="bold">Load Balancer</text>

  <rect x="40" y="375" width="180" height="50" rx="8" fill="#DBEAFE" stroke="#2563EB" stroke-width="1.5"/>
  <text x="130" y="400" text-anchor="middle" font-weight="bold">ECR Registry</text>
  <text x="130" y="415" text-anchor="middle" class="small">Container Images</text>

  <rect x="270" y="0" width="200" height="45" rx="8" fill="#F3F4F6" stroke="#6B7280" stroke-width="1.5"/>
  <text x="370" y="20" text-anchor="middle" font-weight="bold">Azure DevOps</text>
  <text x="370" y="36" text-anchor="middle" class="small">CI/CD Pipeline</text>

  <line x1="370" y1="45" x2="160" y2="155" stroke="#6B7280" stroke-width="1.5" marker-end="url(#arrow)"/>
  <text x="235" y="93" class="label">triggers</text>

  <line x1="160" y1="300" x2="160" y2="370" stroke="#D97706" stroke-width="1.5" marker-end="url(#arrow)"/>
  <text x="170" y="345" class="label">push image</text>

  <line x1="245" y1="200" x2="305" y2="200" stroke="#D97706" stroke-width="1.5" marker-end="url(#arrow)"/>
  <text x="275" y="193" class="label">helm deploy</text>

  <line x1="130" y1="425" x2="490" y2="425" stroke="#2563EB" stroke-width="1.2" stroke-dasharray="5,3" marker-end="url(#arrow-blue)"/>
  <text x="310" y="445" class="label">pull image</text>

  <rect x="560" y="375" width="150" height="50" rx="20" fill="#FFFFFF" stroke="#6B7280" stroke-width="1.5"/>
  <text x="635" y="405" text-anchor="middle" font-weight="bold">Internet</text>

  <line x1="555" y1="400" x2="465" y2="330" stroke="#6B7280" stroke-width="1.5" marker-end="url(#arrow)"/>
  <text x="530" y="355" class="label">traffic</text>
</svg>
