<svg xmlns="http://www.w3.org/2000/svg" viewBox="0 0 700 420">
  <defs>
    <marker id="arrow" viewBox="0 0 10 10" refX="9" refY="5" markerWidth="6" markerHeight="6" orient="auto-start-reverse">
      <path d="M 0 0 L 10 5 L 0 10 z" fill="#6B7280"/>
    </marker>
    <style>
      text { font-family: Arial, sans-serif; font-size: 13px; fill: #1F2937; }
      .small { font-size: 11px; fill: #6B7280; }
      .step { font-size: 12px; fill: #4B5563; }
    </style>
  </defs>

  <rect x="50" y="10" width="100" height="40" rx="6" fill="#DBEAFE" stroke="#2563EB" stroke-width="1.5"/>
  <text x="100" y="35" text-anchor="middle" font-weight="bold">Developer</text>

  <rect x="210" y="10" width="100" height="40" rx="6" fill="#F3F4F6" stroke="#6B7280" stroke-width="1.5"/>
  <text x="260" y="35" text-anchor="middle" font-weight="bold">Git</text>

  <rect x="370" y="10" width="100" height="40" rx="6" fill="#FEF3C7" stroke="#D97706" stroke-width="1.5"/>
  <text x="420" y="35" text-anchor="middle" font-weight="bold">Pipeline</text>

  <rect x="530" y="10" width="100" height="40" rx="6" fill="#DBEAFE" stroke="#2563EB" stroke-width="1.5"/>
  <text x="580" y="35" text-anchor="middle" font-weight="bold">ECR</text>

  <line x1="100" y1="50" x2="100" y2="400" stroke="#2563EB" stroke-width="1" stroke-dasharray="4,4"/>
  <line x1="260" y1="50" x2="260" y2="400" stroke="#6B7280" stroke-width="1" stroke-dasharray="4,4"/>
  <line x1="420" y1="50" x2="420" y2="400" stroke="#D97706" stroke-width="1" stroke-dasharray="4,4"/>
  <line x1="580" y1="50" x2="580" y2="400" stroke="#2563EB" stroke-width="1" stroke-dasharray="4,4"/>

  <line x1="105" y1="80" x2="255" y2="80" stroke="#6B7280" stroke-width="1.5" marker-end="url(#arrow)"/>
  <text x="180" y="73" text-anchor="middle" class="step">git push</text>

  <line x1="265" y1="115" x2="415" y2="115" stroke="#6B7280" stroke-width="1.5" marker-end="url(#arrow)"/>
  <text x="340" y="108" text-anchor="middle" class="step">trigger</text>

  <rect x="380" y="140" width="80" height="30" rx="4" fill="#DBEAFE" stroke="#2563EB" stroke-width="1"/>
  <text x="420" y="160" text-anchor="middle" class="step">Test</text>

  <rect x="380" y="185" width="80" height="30" rx="4" fill="#FEF3C7" stroke="#D97706" stroke-width="1"/>
  <text x="420" y="205" text-anchor="middle" class="step">Security</text>

  <line x1="425" y1="230" x2="575" y2="230" stroke="#6B7280" stroke-width="1.5" marker-end="url(#arrow)"/>
  <text x="500" y="223" text-anchor="middle" class="step">push image</text>

  <rect x="380" y="255" width="80" height="30" rx="4" fill="#FEE2E2" stroke="#DC2626" stroke-width="1"/>
  <text x="420" y="275" text-anchor="middle" class="step">Scan</text>

  <line x1="425" y1="310" x2="575" y2="310" stroke="#6B7280" stroke-width="1.5" marker-end="url(#arrow)"/>
  <text x="500" y="303" text-anchor="middle" class="step">helm deploy</text>

  <rect x="540" y="320" width="80" height="30" rx="4" fill="#D1FAE5" stroke="#059669" stroke-width="1"/>
  <text x="580" y="340" text-anchor="middle" class="step">Rollout</text>

  <line x1="535" y1="370" x2="105" y2="370" stroke="#059669" stroke-width="1.5" stroke-dasharray="6,3" marker-end="url(#arrow)"/>
  <text x="320" y="390" text-anchor="middle" class="step">app available via LoadBalancer</text>
</svg>
