<svg xmlns="http://www.w3.org/2000/svg" viewBox="0 0 640 280">
  <defs>
    <marker id="arrow" viewBox="0 0 10 10" refX="9" refY="5" markerWidth="6" markerHeight="6" orient="auto-start-reverse">
      <path d="M 0 0 L 10 5 L 0 10 z" fill="#6B7280"/>
    </marker>
    <style>
      text { font-family: Arial, sans-serif; font-size: 13px; fill: #1F2937; }
      .small { font-size: 11px; fill: #6B7280; }
    </style>
  </defs>

  <rect x="245" y="10" width="150" height="50" rx="8" fill="#E0E7FF" stroke="#4338CA" stroke-width="1.5"/>
  <text x="320" y="32" text-anchor="middle" font-weight="bold">main.tf</text>
  <text x="320" y="48" text-anchor="middle" class="small">root module</text>

  <line x1="270" y1="60" x2="100" y2="100" stroke="#6B7280" stroke-width="1.5" marker-end="url(#arrow)"/>
  <line x1="300" y1="60" x2="260" y2="100" stroke="#6B7280" stroke-width="1.5" marker-end="url(#arrow)"/>
  <line x1="340" y1="60" x2="400" y2="100" stroke="#6B7280" stroke-width="1.5" marker-end="url(#arrow)"/>
  <line x1="370" y1="60" x2="540" y2="100" stroke="#6B7280" stroke-width="1.5" marker-end="url(#arrow)"/>

  <rect x="20" y="105" width="150" height="50" rx="8" fill="#D1FAE5" stroke="#059669" stroke-width="1.5"/>
  <text x="95" y="127" text-anchor="middle" font-weight="bold">networking</text>
  <text x="95" y="143" text-anchor="middle" class="small">VPC, Subnets, NAT</text>

  <rect x="190" y="105" width="150" height="50" rx="8" fill="#DBEAFE" stroke="#2563EB" stroke-width="1.5"/>
  <text x="265" y="127" text-anchor="middle" font-weight="bold">ecr</text>
  <text x="265" y="143" text-anchor="middle" class="small">Repository, Lifecycle</text>

  <rect x="360" y="105" width="150" height="50" rx="8" fill="#FEF3C7" stroke="#D97706" stroke-width="1.5"/>
  <text x="435" y="127" text-anchor="middle" font-weight="bold">agent</text>
  <text x="435" y="143" text-anchor="middle" class="small">IAM, SG, EC2</text>

  <rect x="530" y="105" width="150" height="50" rx="8" fill="#EDE9FE" stroke="#7C3AED" stroke-width="1.5"/>
  <text x="605" y="127" text-anchor="middle" font-weight="bold">eks</text>
  <text x="605" y="143" text-anchor="middle" class="small">Cluster, Node Groups</text>

  <path d="M 95 155 L 95 200 Q 95 210 105 210 L 420 210 Q 430 210 430 200 L 430 160" stroke="#059669" stroke-width="1.2" fill="none" stroke-dasharray="6,3" marker-end="url(#arrow)"/>
  <text x="220" y="225" text-anchor="middle" class="small">vpc_id, subnets</text>

  <path d="M 120 155 L 120 240 Q 120 250 130 250 L 590 250 Q 600 250 600 240 L 600 160" stroke="#059669" stroke-width="1.2" fill="none" stroke-dasharray="6,3" marker-end="url(#arrow)"/>
  <text x="360" y="265" text-anchor="middle" class="small">vpc_id, subnets</text>

  <line x1="475" y1="155" x2="565" y2="155" stroke="#D97706" stroke-width="1.2" stroke-dasharray="6,3"/>
  <line x1="565" y1="155" x2="565" y2="145" stroke="#D97706" stroke-width="1.2" stroke-dasharray="6,3"/>
  <line x1="562" y1="148" x2="565" y2="140" stroke="#D97706" stroke-width="1.2"/>
  <line x1="568" y1="148" x2="565" y2="140" stroke="#D97706" stroke-width="1.2"/>
  <text x="520" y="170" text-anchor="middle" class="small">sg_id, role_arn</text>
</svg>
